<svg xmlns="http://www.w3.org/2000/svg" width="37" height="37" viewBox="0 0 37 37">
  <g id="Group_2601" data-name="Group 2601" transform="translate(-570 -445)">
    <path id="Path_2525" data-name="Path 2525" d="M8,0H29a8,8,0,0,1,8,8V29a8,8,0,0,1-8,8H8a8,8,0,0,1-8-8V8A8,8,0,0,1,8,0Z" transform="translate(570 445)" fill="#fff"/>
    <path id="Icon_material-mode-edit" data-name="Icon material-mode-edit" d="M4.5,16.024v3.033H7.439l8.667-8.946L13.167,7.079ZM18.378,7.766a.824.824,0,0,0,0-1.14L16.544,4.733a.763.763,0,0,0-1.1,0l-1.434,1.48,2.939,3.033Z" transform="translate(576.5 451.504)" fill="#ffb528"/>
  </g>
</svg>
