<svg xmlns="http://www.w3.org/2000/svg" width="47" height="48.337" viewBox="0 0 47 48.337">
  <g id="Group_3708" data-name="Group 3708" transform="translate(-217.417 -866.69)">
    <text id="Portfolio" transform="translate(217.417 911.027)" fill="#00ff5f" font-size="11" font-family="Poppins-SemiBold, Poppins" font-weight="600"><tspan x="0" y="0">Portfolio</tspan></text>
    <g id="Iconly_Bulk_Document" data-name="Iconly/Bulk/Document" transform="translate(223.861 863.93)">
      <g id="Document" transform="translate(4.139 2.759)">
        <path id="Path" d="M18.2,0H6.636C2.442,0,0,2.456,0,6.664V20.915c0,4.277,2.442,6.677,6.636,6.677H18.2c4.262,0,6.635-2.4,6.635-6.677V6.664C24.833,2.456,22.46,0,18.2,0" fill="#00ff5f"/>
        <path id="Combined_Shape" data-name="Combined Shape" d="M.165,14.21a1.1,1.1,0,0,1,0-1.158,1.083,1.083,0,0,1,1.036-.51H12.017a1.09,1.09,0,0,1,0,2.165H1.2a1.01,1.01,0,0,1-.135.009A1.081,1.081,0,0,1,.165,14.21ZM1.2,8.4a1.077,1.077,0,0,1,0-2.154H12.017a1.077,1.077,0,0,1,0,2.154Zm0-6.237A1.076,1.076,0,1,1,1.2.014V0H5.324a1.083,1.083,0,0,1,0,2.165Z" transform="translate(5.809 6.415)" fill="#2c2d33" opacity="0.6"/>
      </g>
    </g>
  </g>
</svg>
